<svg id="_x31__x2C_5" height="512" viewBox="0 0 24 24" width="512" xmlns="http://www.w3.org/2000/svg"><path d="m22.25 19.25h-20.5c-.552 0-1-.448-1-1v-12.5c0-.552.448-1 1-1h20.5c.552 0 1 .448 1 1v12.5c0 .552-.448 1-1 1z" fill="#fff"/><path d="m9 15c-.414 0-.75-.336-.75-.75v-4.5c0-.414.336-.75.75-.75s.75.336.75.75v4.5c0 .414-.336.75-.75.75z"/><path d="m10.25 10.5h-2.5c-.414 0-.75-.336-.75-.75s.336-.75.75-.75h2.5c.414 0 .75.336.75.75s-.336.75-.75.75z"/><path d="m15 15c-.323 0-.609-.207-.711-.513l-1.5-4.5c-.131-.393.081-.818.474-.949s.818.082.949.474l.788 2.366.789-2.366c.13-.393.555-.607.949-.474.393.131.605.556.474.949l-1.5 4.5c-.103.306-.389.513-.712.513z"/><path d="m12 8c-.551 0-1-.449-1-1s.449-1 1-1 1 .449 1 1-.449 1-1 1z"/><path d="m13.875 5.5c-.224 0-.444-.1-.592-.29-.713-.916-1.854-.916-2.566 0-.254.327-.726.385-1.052.131-.328-.254-.386-.725-.132-1.051.637-.82 1.537-1.29 2.467-1.29s1.83.47 2.467 1.29c.254.327.196.798-.131 1.052-.137.106-.299.158-.461.158z"/><path d="m15.75 3.5c-.224 0-.445-.1-.593-.29-.855-1.103-1.977-1.71-3.157-1.71s-2.302.607-3.158 1.71c-.253.328-.725.387-1.052.132-.327-.254-.387-.725-.132-1.052 1.129-1.455 2.712-2.29 4.342-2.29s3.213.835 4.342 2.29c.254.327.195.798-.132 1.052-.137.107-.299.158-.46.158z"/><path d="m22.25 20h-20.5c-.965 0-1.75-.785-1.75-1.75v-12.5c0-.965.785-1.75 1.75-1.75h3.5c.415 0 .75.336.75.75s-.335.75-.75.75h-3.5c-.138 0-.25.112-.25.25v12.5c0 .138.112.25.25.25h20.5c.138 0 .25-.112.25-.25v-12.5c0-.138-.112-.25-.25-.25h-3.5c-.414 0-.75-.336-.75-.75s.336-.75.75-.75h3.5c.965 0 1.75.785 1.75 1.75v12.5c0 .965-.785 1.75-1.75 1.75z"/><path d="m16.25 24h-8.5c-.414 0-.75-.336-.75-.75s.336-.75.75-.75h8.5c.414 0 .75.336.75.75s-.336.75-.75.75z"/><path d="m12 24c-.414 0-.75-.336-.75-.75v-4c0-.414.336-.75.75-.75s.75.336.75.75v4c0 .414-.336.75-.75.75z"/></svg>